#!OML:ASF I:\Actors\actors\Patient Classification 1\Patient 1\Session 1\Subject1.ASF
:FULLY-SPECIFIED
:DEGREES
330
root -0.588648 17.8749 7.4601 26.3116 12.9634 -13.1819
lowerback 28.9635 1.82754 3.43325
upperback 10.6232 3.15522 -0.873085
thorax -3.75372 1.61963 -3.90502
lowerneck -16.9858 -1.31341 0.557722
upperneck -0.0779529 -2.20367 6.73483
head 3.06736 -0.788102 1.97828
rclavicle 1.03368e-014 -1.82882e-014
rhumerus 51.2127 14.2333 -68.4988
rradius 21.3653
rwrist 2.30193
rhand 12.1736 -27.7665
rfingers 7.12502
rthumb 37.1849 -53.783
lclavicle 1.03368e-014 -1.82882e-014
lhumerus 47.4761 -8.22634 61.3733
lradius 20.9267
lwrist 34.094
lhand -14.5135 -12.4251
lfingers 7.12502
lthumb 11.634 17.232
rfemur -28.5008 30.0193 18.4385
rtibia 1.21798
rfoot -12.9724 -37.4282
rtoes 16.819
lfemur -34.8071 -38.6645 22.6662
ltibia -0.995971
lfoot -8.80253 49.785
ltoes 4.16935
331
root -0.590214 17.8737 7.46016 26.3519 13.0102 -13.2104
lowerback 29.0811 1.9938 3.73085
upperback 10.5771 3.41427 -1.26524
thorax -3.78632 1.75802 -4.59508
lowerneck -17.1777 -1.34783 1.95759
upperneck -0.112505 -2.5196 6.48125
head 3.06685 -0.948429 1.61182
rclavicle 2.54444e-014 5.52621e-014
rhumerus 50.9802 13.5899 -68.375
rradius 21.6806
rwrist 1.60463
rhand 12.8749 -27.7943
rfingers 7.12502
rthumb 37.8477 -53.6348
lclavicle 2.54444e-014 5.52621e-014
lhumerus 48.1465 -10.982 57.3395
lradius 22.2946
lwrist 36.5522
lhand -14.8633 -11.7967
lfingers 7.12502
lthumb 11.2966 17.8791
rfemur -28.5312 29.9926 18.4629
rtibia 1.18015
rfoot -12.9342 -37.4575
rtoes 16.6279
lfemur -34.8568 -38.548 22.7061
ltibia -0.997599
lfoot -8.62073 49.7158
ltoes 3.94037
332
root -0.592127 17.873 7.45904 26.436 13.023 -13.2185
lowerback 29.2307 1.95825 3.83035
upperback 10.4954 3.39405 -1.35317
thorax -3.93585 1.74554 -4.75531
lowerneck -17.2729 -1.34704 1.75719
upperneck -0.0971702 -2.49202 6.66318
head 3.09791 -0.924552 1.71246
rclavicle -1.35174e-014 1.19271e-015
rhumerus 51.1376 14.0894 -67.3334
rradius 22.049
rwrist 0.577152
rhand 13.3448 -27.8274
rfingers 7.12502
rthumb 38.2915 -53.5467
lclavicle -1.35174e-014 1.19271e-015
lhumerus 48.2483 -12.7024 54.0441
lradius 23.6368
lwrist 38.7978
lhand -15.7252 -11.488
lfingers 7.12502
lthumb 10.4652 18.2315
rfemur -28.649 29.9748 18.4118
rtibia 1.16246
rfoot -12.8217 -37.4885
rtoes 16.1531
lfemur -34.9773 -38.4712 22.8034
ltibia -0.978261
lfoot -8.56988 49.6991
ltoes 3.92905
333
root -0.594472 17.8731 7.45842 26.5473 13.0262 -13.2224
lowerback 29.3553 1.81653 3.72069
upperback 10.3902 3.19694 -1.30396
thorax -4.14381 1.63845 -4.58867
lowerneck -17.1754 -1.18471 1.2994
upperneck -0.140616 -2.17473 6.66698
head 3.06419 -0.770383 1.82224
rclavicle -1.35174e-014 9.54166e-015
rhumerus 51.5042 15.2031 -65.9841
rradius 22.4952
rwrist -0.540069
rhand 13.8267 -27.778
rfingers 7.12502
rthumb 38.7461 -53.3703
lclavicle -1.35174e-014 9.54166e-015
lhumerus 47.8542 -13.9743 50.8899
lradius 25.2468
lwrist 41.6378
lhand -17.3258 -10.9841
lfingers 7.12502
lthumb 8.92099 18.8073
rfemur -28.7743 29.9774 18.3611
rtibia 1.14223
rfoot -12.8433 -37.465
rtoes 16.2711
lfemur -35.1494 -38.4814 22.9913
ltibia -0.977551
lfoot -8.79252 49.7995
ltoes 4.27474
334
root -0.597901 17.8732 7.45842 26.6579 13.0537 -13.1987
lowerback 29.2841 2.09948 3.68083
upperback 10.4849 3.5369 -1.26833
thorax -3.97444 1.80738 -4.62208
lowerneck -17.2656 -1.26043 1.87124
upperneck -0.435826 -2.35599 6.30482
head 2.9627 -0.882099 1.57882
rclavicle -3.89618e-014 -2.38542e-014
rhumerus 51.5768 14.9844 -64.623
rradius 22.9787
rwrist -1.55777
rhand 14.3633 -27.5866
rfingers 7.12502
rthumb 39.252 -53.034
lclavicle -3.89618e-014 -2.38542e-014
lhumerus 48.7023 -16.4003 46.7956
lradius 27.4734
lwrist 46.1022
lhand -19.3786 -10.3109
lfingers 7.12502
lthumb 6.93972 19.5553
rfemur -28.8407 29.9571 18.3201
rtibia 1.07632
rfoot -13.0347 -37.3952
rtoes 17.0066
lfemur -35.3671 -38.6098 23.2393
ltibia -1.00553
lfoot -9.1902 50.0165
ltoes 4.75296
335
root -0.601581 17.873 7.45729 26.748 13.1161 -13.1876
lowerback 29.2825 2.18963 3.63878
upperback 10.5309 3.63795 -1.2589
thorax -3.91517 1.85773 -4.61606
lowerneck -17.2286 -1.2368 2.08104
upperneck -0.720472 -2.34159 6.22792
head 2.84957 -0.88661 1.51439
rclavicle 3.18055e-015 8.34896e-015
rhumerus 51.8165 15.4994 -62.8885
rradius 23.7671
rwrist -3.15625
rhand 14.931 -27.4197
rfingers 7.12502
rthumb 39.7867 -52.7098
lclavicle 3.18055e-015 8.34896e-015
lhumerus 49.2279 -18.4635 42.364
lradius 30.0552
lwrist 50.8856
lhand -20.7648 -9.89016
lfingers 7.12502
lthumb 5.60144 20.0158
rfemur -28.9035 29.9058 18.306
rtibia 1.03071
rfoot -13.2324 -37.3276
rtoes 17.6252
lfemur -35.5474 -38.6 23.4057
ltibia -1.01598
lfoot -9.27767 50.0639
ltoes 4.90079
336
root -0.604506 17.8721 7.456 26.8382 13.1915 -13.186
lowerback 29.2884 2.19146 3.58858
upperback 10.5778 3.62618 -1.27086
thorax -3.86889 1.85382 -4.59532
lowerneck -17.3379 -1.17599 2.15621
upperneck -0.882179 -2.26793 6.22174
head 2.80989 -0.852336 1.50384
rclavicle 3.81667e-014 -1.78906e-014
rhumerus 52.2371 16.5389 -60.5151
rradius 24.9586
rwrist -5.49168
rhand 15.5377 -27.3201
rfingers 7.12502
rthumb 40.3575 -52.4373
lclavicle 3.81667e-014 -1.78906e-014
lhumerus 49.6527 -20.1653 38.0501
lradius 32.5426
lwrist 54.447
lhand -21.2603 -9.66854
lfingers 7.12502
lthumb 5.12301 20.2495
rfemur -28.9842 29.8435 18.2993
rtibia 0.98707
rfoot -13.2165 -37.3278
rtoes 17.5509
lfemur -35.7074 -38.5219 23.5349
ltibia -1.02435
lfoot -9.03451 50.0237
ltoes 4.63871
337
root -0.606918 17.8699 7.45596 26.9436 13.2599 -13.1865
lowerback 29.3098 2.18447 3.55426
upperback 10.5725 3.6069 -1.30391
thorax -3.88667 1.84402 -4.60791
lowerneck -17.3563 -1.11061 2.35346
upperneck -1.02012 -2.20784 6.15532
head 2.75862 -0.82845 1.45012
rclavicle 7.31528e-014 2.98177e-014
rhumerus 52.6641 17.834 -57.6665
rradius 26.4456
rwrist -8.1992
rhand 16.05 -27.2679
rfingers 7.12502
rthumb 40.8391 -52.2352
lclavicle 7.31528e-014 2.98177e-014
lhumerus 50.2195 -21.9088 33.4562
lradius 34.9722
lwrist 57.2416
lhand -21.7573 -9.4218
lfingers 7.12502
lthumb 4.64315 20.5073
rfemur -29.0673 29.7859 18.2813
rtibia 0.902087
rfoot -13.1243 -37.3486
rtoes 17.2008
lfemur -35.9332 -38.6311 23.8094
ltibia -1.04655
lfoot -9.02791 50.1753
ltoes 4.47386
338
root -0.608959 17.8673 7.4565 27.0727 13.346 -13.214
lowerback 29.3123 2.1924 3.57703
upperback 10.5369 3.62325 -1.30268
thorax -3.92473 1.85039 -4.62622
lowerneck -17.2401 -1.09521 2.41314
upperneck -1.15721 -2.18381 6.14051
head 2.68725 -0.823189 1.43543
rclavicle -4.21423e-014 -1.55052e-014
rhumerus 53.1352 19.1928 -54.3624
rradius 28.1461
rwrist -11.0429
rhand 16.6556 -27.1419
rfingers 7.12502
rthumb 41.4077 -51.9273
lclavicle -4.21423e-014 -1.55052e-014
lhumerus 50.898 -23.581 28.785
lradius 37.5802
lwrist 60.296
lhand -22.3962 -8.95962
lfingers 7.12502
lthumb 4.02622 20.9821
rfemur -29.1882 29.7225 18.2773
rtibia 0.842562
rfoot -13.0771 -37.3289
rtoes 17.0083
lfemur -36.2288 -38.7713 24.186
ltibia -1.0487
lfoot -9.23504 50.3987
ltoes 4.60813
339
root -0.610944 17.8653 7.45636 27.2443 13.4494 -13.251
lowerback 29.2489 2.24433 3.59332
upperback 10.5591 3.69557 -1.22717
thorax -3.86795 1.88586 -4.56906
lowerneck -17.3329 -1.18955 2.04281
upperneck -1.17851 -2.24827 6.34834
head 2.70946 -0.845735 1.56653
rclavicle 3.73715e-014 -1.15295e-014
rhumerus 53.6887 20.3866 -50.7297
rradius 30.1499
rwrist -13.8921
rhand 17.4994 -27.0548
rfingers 7.12502
rthumb 42.1989 -51.5778
lclavicle 3.73715e-014 -1.15295e-014
lhumerus 51.4785 -24.7192 24.9272
lradius 40.3023
lwrist 63.4485
lhand -22.444 -8.65548
lfingers 7.12502
lthumb 3.97999 21.2871
rfemur -29.3779 29.646 18.2635
rtibia 0.817004
rfoot -13.064 -37.267
rtoes 17.1004
lfemur -36.5911 -38.8643 24.615
ltibia -1.04794
lfoot -9.48432 50.6267
ltoes 4.97343
340
root -0.61247 17.8651 7.45639 27.4395 13.5324 -13.2371
lowerback 29.1792 2.33232 3.55232
upperback 10.627 3.79767 -1.14011
thorax -3.75921 1.93671 -4.47282
lowerneck -17.4224 -1.32433 1.62874
upperneck -1.31415 -2.35288 6.62545
head 2.69532 -0.888907 1.72554
rclavicle -3.89618e-014 -4.73108e-014
rhumerus 54.2285 21.3163 -47.2003
rradius 32.2944
rwrist -16.4899
rhand 18.5143 -27.0822
rfingers 7.12502
rthumb 43.1486 -51.2754
lclavicle -3.89618e-014 -4.73108e-014
lhumerus 51.9505 -25.2521 22.1851
lradius 42.6304
lwrist 65.7944
lhand -21.2249 -8.52043
lfingers 7.12502
lthumb 5.15718 21.3968
rfemur -29.5854 29.5556 18.1763
rtibia 0.779671
rfoot -13.1469 -37.205
rtoes 17.4093
lfemur -36.9672 -38.9727 25.0131
ltibia -1.07877
lfoot -9.68571 50.8745
ltoes 5.24137
